<?xml version="1.0" standalone="no"?>
<!DOCTYPE svg PUBLIC "-//W3C//DTD SVG 20010904//EN"
 "http://www.w3.org/TR/2001/REC-SVG-20010904/DTD/svg10.dtd">
<svg version="1.0" xmlns="http://www.w3.org/2000/svg"
 width="2847.000000pt" height="1600.000000pt" viewBox="0 0 2847.000000 1600.000000"
 preserveAspectRatio="xMidYMid meet">

<g transform="translate(0.000000,1600.000000) scale(0.100000,-0.100000)"
fill="#000000" stroke="none">
<path d="M22455 14650 c-695 -77 -1290 -367 -1771 -862 -218 -225 -366 -436
-505 -723 -180 -372 -259 -682 -215 -855 57 -225 236 -389 463 -422 170 -25
347 34 467 154 79 80 118 150 151 268 102 367 253 634 487 855 570 542 1409
637 2083 237 410 -243 710 -673 807 -1156 30 -146 32 -481 4 -616 -38 -186
-40 -224 -22 -316 42 -214 188 -376 396 -438 70 -21 216 -22 294 -1 206 54
356 221 406 451 160 741 16 1518 -400 2152 -111 169 -225 309 -374 457 -155
155 -254 236 -435 356 -332 221 -737 377 -1147 439 -157 24 -548 35 -689 20z"/>
<path d="M17683 12559 c-737 -86 -1404 -533 -1773 -1187 -327 -582 -386 -1321
-154 -1949 90 -245 267 -548 383 -655 170 -158 424 -191 629 -83 128 67 224
176 274 310 17 49 22 82 22 180 1 151 -17 210 -110 350 -214 325 -273 666
-178 1027 33 128 136 331 218 434 263 328 659 500 1065 463 358 -33 664 -204
888 -496 125 -163 291 -241 488 -230 286 16 504 235 522 523 14 204 -76 371
-337 634 -376 378 -835 604 -1373 675 -127 16 -438 19 -564 4z"/>
<path d="M26440 11983 c-200 -33 -382 -193 -442 -388 -26 -81 -30 -231 -9
-305 35 -123 67 -167 247 -345 189 -187 234 -239 337 -395 241 -365 362 -835
328 -1269 -22 -277 -82 -501 -197 -741 -336 -697 -1007 -1137 -1779 -1167
-499 -19 -978 141 -1373 458 -130 105 -243 149 -382 149 -139 0 -271 -50 -371
-139 -229 -204 -252 -559 -51 -782 100 -112 354 -294 587 -422 1021 -560 2294
-504 3270 145 626 415 1091 1052 1300 1779 43 150 80 337 101 519 22 198 15
616 -14 805 -118 761 -471 1413 -1035 1916 -110 97 -202 151 -298 174 -60 14
-162 18 -219 8z"/>
<path d="M5490 4839 c-516 -59 -878 -294 -1127 -730 -226 -396 -289 -949 -166
-1452 31 -128 36 -117 -101 -209 -268 -179 -552 -258 -881 -245 -306 13 -489
78 -653 232 -85 80 -140 156 -187 259 -44 95 -62 176 -75 328 -33 392 87 766
311 971 84 77 216 149 325 178 96 26 269 31 362 10 l62 -14 0 -148 0 -149 315
0 315 0 0 438 0 439 -89 21 c-377 91 -807 96 -1156 12 -560 -133 -940 -484
-1119 -1032 -24 -73 -53 -182 -64 -243 -11 -60 -28 -148 -36 -195 -32 -172
-10 -421 60 -679 148 -545 547 -912 1109 -1021 177 -34 315 -43 540 -37 239 7
376 24 555 67 239 59 460 163 651 307 l99 74 66 -57 c179 -152 387 -254 658
-324 209 -54 319 -65 651 -65 239 0 322 4 410 18 359 58 615 149 874 311 l103
64 78 -61 c207 -164 419 -255 718 -309 113 -20 158 -23 402 -23 304 1 408 12
629 66 272 67 526 191 693 339 l48 41 70 -60 c318 -274 720 -415 1139 -398
1093 42 1830 1117 1481 2159 -186 556 -681 980 -1258 1079 -129 22 -388 26
-519 8 -566 -75 -1076 -477 -1284 -1008 -72 -184 -119 -419 -119 -597 0 -172
37 -388 97 -559 19 -55 37 -109 39 -120 4 -16 -12 -32 -89 -83 -174 -115 -359
-187 -572 -224 -100 -17 -147 -19 -285 -15 -225 7 -407 51 -536 128 -188 113
-341 335 -378 550 -85 493 68 970 380 1178 183 123 401 166 612 121 l52 -12 0
-149 0 -149 320 0 320 0 0 429 c0 331 -3 431 -12 439 -18 14 -204 59 -323 78
-155 24 -482 30 -649 10 -482 -56 -862 -242 -1102 -539 -252 -315 -394 -742
-394 -1194 0 -151 46 -425 95 -564 14 -39 14 -41 -13 -64 -69 -60 -300 -170
-451 -215 -266 -79 -590 -91 -871 -34 -222 46 -373 131 -508 288 -44 51 -125
206 -137 260 -6 29 -6 29 32 23 21 -4 113 -12 205 -19 501 -36 947 94 1225
356 269 254 384 684 283 1057 -48 175 -159 342 -295 446 -86 66 -245 145 -345
173 -169 47 -393 61 -590 39z m239 -624 c35 -9 87 -28 114 -42 207 -113 220
-410 27 -616 -76 -82 -175 -134 -326 -173 -158 -40 -422 -43 -608 -7 l-28 6 7
76 c11 119 50 256 106 369 91 188 256 330 434 375 115 30 185 33 274 12z
m5511 -95 c117 -28 286 -114 380 -193 310 -260 425 -665 297 -1042 -53 -155
-123 -261 -254 -385 -194 -184 -417 -268 -683 -257 -147 6 -242 28 -366 86
-260 122 -449 350 -526 631 -19 72 -23 108 -22 240 1 139 3 164 28 245 113
373 414 636 791 695 86 13 256 4 355 -20z"/>
<path d="M18848 4830 c-119 -13 -272 -45 -385 -81 -341 -109 -569 -311 -664
-585 -32 -96 -33 -104 -33 -254 0 -141 2 -162 27 -235 86 -258 272 -408 620
-500 118 -31 407 -97 617 -140 198 -41 312 -75 402 -121 89 -45 132 -84 165
-152 25 -51 28 -67 28 -157 -1 -124 -24 -191 -95 -268 -117 -128 -364 -195
-627 -168 -246 24 -386 95 -444 224 -22 47 -24 69 -27 230 l-4 177 -311 -2
-312 -3 -7 -95 c-3 -52 -13 -115 -22 -139 -86 -236 -425 -254 -535 -29 -53
107 -54 131 -47 758 6 604 1 737 -34 875 -24 98 -94 241 -154 317 -104 131
-285 242 -481 295 -94 25 -113 27 -325 27 -178 1 -243 -3 -313 -17 -267 -54
-491 -181 -634 -360 l-30 -38 -26 44 c-88 150 -238 267 -417 326 -154 51 -427
67 -606 36 -100 -18 -238 -62 -316 -101 -78 -39 -206 -127 -260 -178 l-48 -45
0 112 c0 61 -3 129 -6 150 l-7 37 -363 0 -364 0 0 -1570 0 -1570 370 0 370 0
0 868 c0 891 3 970 41 1112 70 263 268 461 502 501 190 32 389 -59 468 -213
49 -95 49 -95 49 -1178 0 -558 3 -1032 6 -1052 l7 -38 363 0 364 0 0 878 c0
1035 1 1042 102 1251 42 87 62 116 127 181 217 217 546 238 747 48 31 -29 67
-75 81 -102 50 -99 53 -135 53 -776 1 -668 7 -797 45 -913 98 -301 318 -494
630 -552 132 -25 329 -17 450 19 117 35 232 91 328 160 42 30 79 50 83 45 3
-5 39 -38 80 -73 170 -145 359 -207 720 -236 332 -27 657 37 943 186 196 102
307 191 408 327 47 64 133 229 133 256 0 21 14 3 30 -39 28 -73 112 -234 159
-304 143 -211 358 -351 636 -413 39 -8 142 -19 230 -23 154 -7 165 -7 285 20
218 49 367 116 516 231 70 54 172 162 214 228 25 38 37 49 43 40 95 -165 121
-202 182 -264 279 -282 857 -279 1245 6 179 131 343 361 357 501 l5 53 -166
165 c-91 91 -169 166 -173 167 -5 2 -28 -32 -53 -74 -25 -43 -74 -108 -110
-144 -204 -206 -505 -194 -617 24 -52 104 -53 116 -53 1208 0 555 -2 1009 -5
1009 -3 0 -88 15 -188 34 -770 146 -1342 93 -1794 -166 -464 -266 -753 -752
-818 -1375 l-7 -63 -49 55 c-28 29 -80 76 -117 103 -186 136 -335 187 -902
312 -427 93 -516 123 -578 194 -59 68 -65 153 -16 254 66 136 242 202 539 203
122 1 319 -21 348 -38 4 -2 7 -62 7 -134 l0 -129 290 0 290 0 0 364 c0 201 -4
367 -9 370 -17 11 -460 95 -581 111 -151 19 -452 27 -572 15z m3232 -630 c52
-5 119 -14 148 -21 l54 -11 -5 -607 c-4 -653 -5 -664 -60 -801 -76 -187 -227
-343 -403 -418 -60 -25 -204 -52 -278 -52 -139 1 -284 58 -372 147 -246 250
-259 916 -27 1300 93 152 239 290 388 363 129 63 259 95 445 108 8 1 58 -3
110 -8z"/>
<path d="M23985 4769 c-170 -60 -289 -203 -317 -380 -52 -344 263 -631 597
-544 134 35 246 129 311 259 34 70 38 85 42 180 4 86 1 116 -17 174 -42 138
-146 251 -279 303 -85 33 -254 37 -337 8z m284 -68 c296 -92 377 -477 145
-691 -236 -218 -615 -84 -673 237 -35 192 92 399 282 458 63 20 175 18 246 -4z"/>
<path d="M23943 4559 c4 -13 7 -133 7 -267 l0 -243 48 3 47 3 3 103 3 102 47
0 c117 0 156 -33 167 -140 l7 -70 43 0 43 0 -5 78 c-6 86 -21 124 -59 148
l-25 17 30 18 c87 53 79 202 -14 249 -21 10 -76 16 -189 18 l-159 4 6 -23z
m283 -67 c28 -15 46 -65 35 -95 -18 -47 -48 -62 -132 -66 l-79 -3 0 94 0 93
78 -6 c42 -3 87 -11 98 -17z"/>
</g>
</svg>
