<svg xmlns="http://www.w3.org/2000/svg" viewBox="0 0 187.3 96.04"><defs><style>.cls-1{fill:#ed232a;}.cls-2{fill:#003876;}</style></defs><g id="Capa_2" data-name="Capa 2"><g id="Capa_1-2" data-name="Capa 1"><path class="cls-1" d="M.05,95.53c.6-.07,1.19-.66,1.19-2.18V85.87c0-.9-.49-1.08-1-1.16-.1,0,0-.44.08-.44H4.11c.1,0,.18.43.08.44-.54.08-1.06.26-1.06,1.16v7.48C3.13,94.65,1.27,96,.29,96,0,96-.06,95.54.05,95.53Z"/><path class="cls-1" d="M6.27,89.88V85.93a1,1,0,0,0-1-1.16c-.11,0,0-.5.07-.5H9.17c.1,0,.18.49.07.5a1,1,0,0,0-1,1.16v4a2.18,2.18,0,0,0,2.24,2.5A2.22,2.22,0,0,0,12.79,90v-4c0-.81-.46-1.07-1.09-1.16-.09,0,0-.5.08-.5h3c.08,0,.16.49,0,.5a1,1,0,0,0-1,1.16v3.93a3.36,3.36,0,0,1-3.64,3.62C8.36,93.48,6.27,92.51,6.27,89.88Z"/><path class="cls-1" d="M25.31,84.75c-.51.08-.86.29-1.3,1.32l-2.19,5.11a5.89,5.89,0,0,0-.64,2.1c0,.07-.87.28-.91.19l-3.13-7.38c-.45-1.06-.77-1.26-1.29-1.34-.16,0-.12-.48,0-.48h3.7c.16,0,.18.47,0,.48-.47,0-.94.29-.51,1.32l1.94,4.67L23,86.07c.45-1-.05-1.28-.64-1.32-.16,0-.13-.48.05-.48h2.89C25.41,84.27,25.46,84.72,25.31,84.75Z"/><path class="cls-1" d="M26.16,92.75c.73-.19,1.3-.31,1.3-1.26V85.87c0-.77-.52-1-1.06-1.13-.1,0,0-.51.05-.49a30.13,30.13,0,0,0,3.46.07c1.17,0,2,0,3.1-.07.33,0,.34.2.27.51L33,86c0,.19-.37.19-.43,0-.21-.67-.56-.94-2.13-.94-.8,0-1.08.23-1.08.83v2c0,.33.17.39.42.39h.34a4.17,4.17,0,0,0,2.31-.51c.14-.12.44-.09.31.19L32,89.62c-.12.26-.34.24-.48,0A1.82,1.82,0,0,0,30,89h-.25c-.25,0-.42.07-.42.4v2c0,.72.26,1,1.26,1a3.56,3.56,0,0,0,2.94-1.38c.08-.1.49,0,.49.19,0,.56-.59,2-1.44,2s-1.4-.07-2.44-.07-2.78,0-3.92.07C26.11,93.32,26.05,92.78,26.16,92.75Z"/><path class="cls-1" d="M43.16,93.16l-6-6v4.37c0,.9.53,1,1.38,1.23.1,0,.05.5-.08.5H35.11c-.09,0-.18-.47,0-.5.44-.21,1-.22,1-1.23V86.74A3.13,3.13,0,0,0,35.68,85c-.17-.24-.3-.37-.3-.4a.3.3,0,0,1,.31-.32h1a.35.35,0,0,1,.29.12l5.9,5.9V86c0-.93-.61-1-1.38-1.2-.1,0-.05-.5.08-.5h3.32c.09,0,.14.48,0,.5-.56.2-1,.27-1,1.2v4.84a13.31,13.31,0,0,0,.15,2.36c0,.18-.13.24-.41.24A.64.64,0,0,1,43.16,93.16Z"/><path class="cls-1" d="M47.83,92.79c.9-.13,1.48-.3,1.48-1V85.62c0-.34-.13-.43-.42-.43h-.25a2.4,2.4,0,0,0-2.15.83c-.11.3-.63.25-.56,0a8.31,8.31,0,0,0,.31-1.62c0-.28.15-.26.4-.23a30.61,30.61,0,0,0,3.69.1c2.54,0,3.27,0,4.09-.1.23,0,.45,0,.36.23A14.22,14.22,0,0,0,54.37,86a.26.26,0,0,1-.49,0c-.14-.44-.76-.83-1.8-.83h-.31c-.31,0-.52.09-.52.43V91.8c0,.69.58.86,1.5,1,.1,0,0,.49-.09.49H47.91C47.81,93.28,47.72,92.8,47.83,92.79Z"/><path class="cls-1" d="M56.71,89.88V85.93a1,1,0,0,0-1-1.16c-.1,0,0-.5.08-.5H59.6c.11,0,.18.49.08.5a1,1,0,0,0-1,1.16v4c0,1.76,1,2.5,2.24,2.5A2.23,2.23,0,0,0,63.23,90v-4c0-.81-.46-1.07-1.09-1.16-.09,0,0-.5.07-.5h3c.08,0,.15.49,0,.5a1,1,0,0,0-1,1.16v3.93a3.37,3.37,0,0,1-3.64,3.62C58.79,93.48,56.71,92.51,56.71,89.88Z"/><path class="cls-1" d="M66.17,92.75c.74-.19,1.3-.31,1.3-1.26V85.87c0-.77-.51-1-1-1.13-.1,0,0-.51,0-.49a15.71,15.71,0,0,0,1.78.07c1.15,0,2-.07,2.7-.07,3,0,4.8,1.86,4.8,4.32a4.64,4.64,0,0,1-4.82,4.73c-.61,0-1.41-.07-2.5-.07a21.5,21.5,0,0,0-2.18.07C66.12,93.32,66.07,92.78,66.17,92.75Zm7.68-3.27c0-2.58-1.28-4.47-3.38-4.47-.78,0-1.1.25-1.1.86v5.62c0,.67.61,1.05,1.85,1.05C73.1,92.54,73.85,91.51,73.85,89.48Z"/><path class="cls-2" d="M32.27,33l1.28-6.65-3.49-8.23L26.14,14a2.33,2.33,0,0,1-.22-.19c6.27,2.73,11,10.12,11.74,19.08V33Zm-2,0-6.89,0V14.19l.08.07c4,3.48,6.8,10.43,6.8,18.43Zm7.37,0H32.28s0-.63,0-1a26.13,26.13,0,0,0-.18-3.29,27.91,27.91,0,0,0-4.24-12.47,14.2,14.2,0,0,0-1.9-2.37l0,0,.81.51c.43.27.86.55,1.26.84A25.72,25.72,0,0,1,31.29,18c.07.07.3.3.54.58s.52.59.72.83a21.58,21.58,0,0,1,2.32,3.36,19.73,19.73,0,0,1,1,2.14,26.14,26.14,0,0,1,1.75,7.79Zm0-.25ZM40.3,32,37.65,21.29l-5.56-5.94s-1.64-1.17-2.58-1.81a6,6,0,0,0-.66-.4h0A22.23,22.23,0,0,1,42.76,32.93v0Zm-.63.93s-.2-2.17-.58-4.11a24.2,24.2,0,0,0-.92-3.28,24.42,24.42,0,0,0-1.28-3.13,23.59,23.59,0,0,0-4-6,21.6,21.6,0,0,0-2-1.9c-.51-.42-1-.75-1.29-1l.74.44c.57.32,1.24.72,2,1.21.33.21.62.45,1,.7.07.05,1.09.84,2.09,1.79a24.23,24.23,0,0,1,2.16,2.36,25.09,25.09,0,0,1,2.71,4.22,23.38,23.38,0,0,1,1.93,5.4c.28,1.25.5,3.25.5,3.25Zm-2,0H32.28s0-.63,0-1a26.13,26.13,0,0,0-.18-3.29,27.91,27.91,0,0,0-4.24-12.47,14.2,14.2,0,0,0-1.9-2.37l0,0,.81.51c.43.27.86.55,1.26.84A25.72,25.72,0,0,1,31.29,18c.07.07.3.3.54.58s.52.59.72.83a21.58,21.58,0,0,1,2.32,3.36,19.73,19.73,0,0,1,1,2.14,26.14,26.14,0,0,1,1.75,7.79Zm0-.25ZM18.55,14,14.64,18.1l-3.5,8.23L12.43,33,7,33v-.05c.79-9,5.48-16.36,11.75-19.08ZM14.42,33V32.7c0-8,2.76-15,6.8-18.43l.09-.08V33Zm-7.35-.27ZM18.76,13.85a14.2,14.2,0,0,0-1.9,2.37A28,28,0,0,0,12.63,28.7,28.41,28.41,0,0,0,12.44,32c0,.36,0,1,0,1H7.05l0-.25h0a25.89,25.89,0,0,1,1.74-7.8,19.59,19.59,0,0,1,1-2.13,21.79,21.79,0,0,1,2.32-3.36c.2-.24.47-.56.72-.84s.47-.51.54-.57a25.87,25.87,0,0,1,3.32-2.86c.4-.28.82-.56,1.25-.84l.82-.5Zm-3.57-.31c-.94.64-2.59,1.81-2.59,1.81L7,21.3,4.21,33H1.94v0A22.21,22.21,0,0,1,15.81,13.16l0,0S15.55,13.3,15.19,13.54Zm-3.38,2.94a23.42,23.42,0,0,0-4,6,25.14,25.14,0,0,0-1.27,3.13,22.68,22.68,0,0,0-.92,3.28C5.22,30.8,5,33,5,33h-3s.21-2,.49-3.25a24.35,24.35,0,0,1,1.93-5.4A25.09,25.09,0,0,1,7.18,20.1a25.59,25.59,0,0,1,2.16-2.37c1-.95,2-1.73,2.09-1.79.34-.25.64-.48,1-.7.72-.48,1.4-.88,2-1.21l.74-.43c-.33.22-.77.56-1.28,1A20.51,20.51,0,0,0,11.81,16.48ZM7.07,32.72ZM18.76,13.85a14.2,14.2,0,0,0-1.9,2.37A28,28,0,0,0,12.63,28.7,28.41,28.41,0,0,0,12.44,32c0,.36,0,1,0,1H7.05l0-.25h0a25.89,25.89,0,0,1,1.74-7.8,19.59,19.59,0,0,1,1-2.13,21.79,21.79,0,0,1,2.32-3.36c.2-.24.47-.56.72-.84s.47-.51.54-.57a25.87,25.87,0,0,1,3.32-2.86c.4-.28.82-.56,1.25-.84l.82-.5Zm7.59-7.41h-8a.13.13,0,0,1-.14-.13V6a.13.13,0,0,1,.14-.13h8a.13.13,0,0,1,.13.13v.31A.13.13,0,0,1,26.35,6.44Zm0,6.07h-8a.13.13,0,0,1-.14-.13v-.31a.13.13,0,0,1,.14-.13h8a.13.13,0,0,1,.13.13v.31A.13.13,0,0,1,26.35,12.51ZM43.82,35.12H.88A.13.13,0,0,1,.74,35v-.37a.13.13,0,0,1,.14-.13H43.82a.13.13,0,0,1,.13.13V35A.13.13,0,0,1,43.82,35.12ZM21.58,1.64h-.13a0,0,0,0,1,0,0V1.3a0,0,0,0,1,0,0h.13a0,0,0,0,1,0,0v.31A0,0,0,0,1,21.58,1.64Zm1.63,0h-.13a0,0,0,0,1,0,0V1.3a0,0,0,0,1,0,0h.13a0,0,0,0,1,0,0v.31A0,0,0,0,1,23.21,1.64Zm-1.78.07v-.1h1.8v.1Zm1-1.3h-.15a0,0,0,0,1,0,0V0a0,0,0,0,1,0,0h.15s0,0,0,0V.37S22.43.41,22.41.41ZM22.28,2.5V.4h.11V2.5Zm-3.05,3h0a3.11,3.11,0,1,1,6.22,0v0Zm7,1H18.42a.25.25,0,0,1-.24-.25V6.11a.24.24,0,0,1,.24-.24h7.82a.24.24,0,0,1,.24.24v.06A.25.25,0,0,1,26.24,6.42Zm0,6.09H18.42a.24.24,0,0,1-.24-.24V12.2a.24.24,0,0,1,.24-.24h7.82a.24.24,0,0,1,.24.24v.07A.24.24,0,0,1,26.24,12.51Zm-3.51-1.06h-.79a.25.25,0,0,1-.24-.25V7a.25.25,0,0,1,.24-.25h.79A.25.25,0,0,1,23,7V11.2A.25.25,0,0,1,22.73,11.45Zm2,0H24a.24.24,0,0,1-.24-.25V7A.24.24,0,0,1,24,6.78h.78A.25.25,0,0,1,25,7V11.2A.25.25,0,0,1,24.76,11.45Zm-4.08,0H19.9a.25.25,0,0,1-.24-.25V7a.25.25,0,0,1,.24-.25h.78a.24.24,0,0,1,.24.25V11.2A.24.24,0,0,1,20.68,11.45Zm9.43,23.3v-1a.2.2,0,0,1,.2-.2h1.9a.2.2,0,0,1,.2.2v.89Zm2.06,3.39H30.35a.24.24,0,0,1-.24-.24V36.08a.24.24,0,0,1,.24-.24h1.82a.24.24,0,0,1,.24.24V37.9A.24.24,0,0,1,32.17,38.14Zm5.29-3.39v-1a.2.2,0,0,1,.21-.2h1.89a.2.2,0,0,1,.21.2v.89Zm2.06,3.39H37.7a.24.24,0,0,1-.24-.24V36.08a.24.24,0,0,1,.24-.24h1.82a.23.23,0,0,1,.24.24V37.9A.24.24,0,0,1,39.52,38.14ZM12.27,34.69V33.8a.2.2,0,0,1,.2-.2h1.9a.2.2,0,0,1,.2.2v1Zm2.06,3.45H12.51a.24.24,0,0,1-.24-.24V36.08a.25.25,0,0,1,.24-.25h1.82a.24.24,0,0,1,.24.25V37.9A.24.24,0,0,1,14.33,38.14ZM4.91,34.69V33.8a.2.2,0,0,1,.21-.2H7a.2.2,0,0,1,.21.2v1ZM7,38.14H5.16a.24.24,0,0,1-.24-.24V36.08a.24.24,0,0,1,.24-.25H7a.25.25,0,0,1,.24.25V37.9A.24.24,0,0,1,7,38.14Zm14.21-3.45V33.8a.2.2,0,0,1,.2-.2h1.9a.2.2,0,0,1,.2.2v1Zm2.06,3.45H21.43a.24.24,0,0,1-.24-.24V36.08a.25.25,0,0,1,.24-.25h1.82a.25.25,0,0,1,.24.25V37.9A.24.24,0,0,1,23.25,38.14Zm20.46-3H1a.25.25,0,0,1-.24-.25v-.14A.24.24,0,0,1,1,34.49H43.71a.24.24,0,0,1,.24.24v.14A.25.25,0,0,1,43.71,35.12Zm0,5.05H1a.25.25,0,0,1-.25-.24v-1A.25.25,0,0,1,1,38.68H43.71a.24.24,0,0,1,.24.24v1A.24.24,0,0,1,43.71,40.17Z"/><path class="cls-2" d="M.93,49.49v0a2.89,2.89,0,0,1,2.89-3A3,3,0,0,1,6,47.26l-.42.49a2.46,2.46,0,0,0-1.76-.66A2.26,2.26,0,0,0,1.6,49.45v0a2.23,2.23,0,0,0,2.28,2.4,2.75,2.75,0,0,0,1.67-.58V49.86H3.79v-.59H6.17v2.3a3.46,3.46,0,0,1-2.31.88A2.83,2.83,0,0,1,.93,49.49Z"/><path class="cls-2" d="M8.32,49.49v0a2.94,2.94,0,1,1,5.88,0s0,0,0,0a2.94,2.94,0,1,1-5.88,0Zm5.2,0v0a2.29,2.29,0,0,0-2.27-2.38A2.26,2.26,0,0,0,9,49.45v0a2.29,2.29,0,0,0,2.27,2.38A2.25,2.25,0,0,0,13.52,49.49Z"/><path class="cls-2" d="M16.51,46.59H19a2.12,2.12,0,0,1,1.5.51,1.28,1.28,0,0,1,.37.92v0a1.38,1.38,0,0,1-.91,1.33c.68.21,1.23.6,1.23,1.39v0c0,1-.83,1.57-2.09,1.57H16.51Zm2.35,2.57c.78,0,1.32-.36,1.32-1v0c0-.56-.45-.93-1.27-.93H17.15v2Zm.23,2.61c.87,0,1.41-.39,1.41-1v0c0-.62-.52-1-1.53-1H17.15v2Z"/><path class="cls-2" d="M23.45,46.59h.65v5.76h-.65Z"/><path class="cls-2" d="M26.73,46.59h4.16v.59H27.38v2h3.14v.59H27.38v2h3.55v.59h-4.2Z"/><path class="cls-2" d="M33.18,46.59h2.48a2.25,2.25,0,0,1,1.64.58,1.58,1.58,0,0,1,.44,1.13v0A1.69,1.69,0,0,1,36.18,50L38,52.35h-.8l-1.67-2.24H33.83v2.24h-.65Zm2.42,2.94c.87,0,1.48-.45,1.48-1.19h0c0-.71-.54-1.14-1.47-1.14H33.83v2.34Z"/><path class="cls-2" d="M40.07,46.59h.61l3.63,4.62V46.59h.63v5.76h-.51l-3.72-4.72v4.72h-.64Z"/><path class="cls-2" d="M47.26,49.49v0a2.94,2.94,0,1,1,5.88,0v0a2.92,2.92,0,0,1-3,3A2.88,2.88,0,0,1,47.26,49.49Zm5.2,0v0a2.27,2.27,0,1,0-4.53,0v0a2.3,2.3,0,0,0,2.28,2.38A2.26,2.26,0,0,0,52.46,49.49Z"/><path class="cls-2" d="M58.86,46.59h2a2.87,2.87,0,0,1,3.06,2.86v0a2.88,2.88,0,0,1-3.06,2.88h-2Zm2,5.16a2.23,2.23,0,0,0,2.38-2.26v0a2.24,2.24,0,0,0-2.38-2.28H59.51v4.56Z"/><path class="cls-2" d="M66.23,46.59H70.4v.59H66.88v2H70v.59H66.88v2h3.56v.59H66.23Z"/><path class="cls-2" d="M76.09,46.59h.65v5.16H80v.6h-3.9Z"/><path class="cls-2" d="M84.26,46.55h.61l2.62,5.8H86.8l-.68-1.52H83l-.68,1.52h-.67Zm1.61,3.7-1.31-2.94-1.32,2.94Z"/><path class="cls-2" d="M8.74,66.4a2.19,2.19,0,0,1-2.5-.7L4.41,63.34a2.16,2.16,0,0,0-1.95-.77v2.31c0,.83.57,1,1.33,1.07.08,0,0,.4-.07.4H.12C0,66.35,0,66,.05,66c.6-.09,1-.32,1-1.07V59.57c0-.78-.41-1-1-1.16-.1,0,0-.42.07-.4a11.22,11.22,0,0,0,1.37.07c.88,0,1.7-.07,2.27-.07,1.79,0,3,.73,3,2.2a2.13,2.13,0,0,1-2.11,2.11v.06c.47,0,.82.2,1.34.86l1.77,2.22a1.3,1.3,0,0,0,1,.59C8.83,66.05,8.81,66.37,8.74,66.4ZM5.25,60.53a1.74,1.74,0,0,0-1.86-1.91c-.7,0-.93.29-.93,1V62h.35C4.58,62,5.25,61.71,5.25,60.53Z"/><path class="cls-2" d="M10.65,66c.69-.18,1.23-.29,1.23-1.17V59.5c0-.76-.49-1-1-1.09-.1,0,0-.42.06-.4.87.09,2.36.07,3.09.07,1.08,0,1.87,0,2.84-.07.29,0,.29.19.23.46l-.29,1.13a.21.21,0,0,1-.38,0c-.18-.58-.53-.92-2-.92-.83,0-1.11.22-1.11.84v1.93c0,.31.16.37.4.37H14a3.47,3.47,0,0,0,2.28-.53c.12-.11.38-.09.27.15l-.67,1.5c-.1.21-.28.19-.41,0a1.92,1.92,0,0,0-1.57-.53H13.7c-.24,0-.4.06-.4.36v2c0,.68.29.93,1.28.93a3,3,0,0,0,2.79-1.27c.08-.13.4-.08.4.13,0,.6-.51,1.8-1.26,1.8s-1.32-.07-2.31-.07-2.39,0-3.47.07C10.61,66.39,10.56,66,10.65,66Z"/><path class="cls-2" d="M22.52,63.16v1.72c0,.83.57,1,1.33,1.07.08,0,0,.4-.07.4h-3.6c-.1,0-.17-.39-.07-.4.6-.09,1-.32,1-1.07V59.57c0-.78-.41-1-1-1.16-.1,0,0-.42.07-.4a11.06,11.06,0,0,0,1.36.07c.88,0,1.62-.07,2.23-.07,1.84,0,3.36.67,3.36,2.54C27.13,62.67,25.15,63.56,22.52,63.16Zm0-3.59v3c2,.29,3.08-.2,3.08-1.76a2,2,0,0,0-2.13-2.2C22.72,58.62,22.52,58.89,22.52,59.57Z"/><path class="cls-2" d="M30.49,63.24V59.5a1,1,0,0,0-1-1.07c-.09,0,0-.4.08-.4h3.24c.1,0,.17.39.07.4A.94.94,0,0,0,32,59.5v3.8a2.14,2.14,0,0,0,2.22,2.43,2.2,2.2,0,0,0,2.33-2.43V59.5c0-.77-.44-1-1-1.07-.08,0,0-.4.07-.4h2.68c.08,0,.15.39.06.4a.94.94,0,0,0-1,1.07v3.72A3.07,3.07,0,0,1,34,66.54C32.36,66.54,30.49,65.65,30.49,63.24ZM34,55.07c.22-.31,1.21.61.93.82l-1.56,1.18c-.15.12-.57-.26-.45-.43Z"/><path class="cls-2" d="M47.82,64c0,1.47-1.34,2.42-3.33,2.42-.57,0-1.23-.07-2.11-.07a17.21,17.21,0,0,0-1.87.07c-.11,0-.17-.4-.07-.42.69-.18,1.22-.29,1.22-1.17V59.5c0-.76-.48-1-1-1.09-.09,0,0-.42.06-.4a12.66,12.66,0,0,0,1.44.07c1,0,1.65-.07,2.18-.07,1.53,0,2.79.64,2.8,2a1.79,1.79,0,0,1-1.49,1.79v.07A2.11,2.11,0,0,1,47.82,64ZM43.09,59.5v2.12h1.22a1.21,1.21,0,0,0,1.36-1.34,1.57,1.57,0,0,0-1.74-1.66C43.3,58.62,43.09,58.84,43.09,59.5Zm3.2,4.71a1.86,1.86,0,0,0-2-2H43.09v2.57c0,.65.33,1,1.37,1S46.29,65.45,46.29,64.21Z"/><path class="cls-2" d="M50.09,66c.69-.18,1.23-.29,1.23-1.17V59.5c0-.83-.49-1-1-1.07-.09,0,0-.4.06-.4h3.28c.08,0,.14.39.06.4a1,1,0,0,0-1,1.07v5.28c0,.68.29.93,1.28.93a3,3,0,0,0,2.79-1.27c.08-.13.4-.08.4.13,0,.6-.51,1.8-1.26,1.8s-1.32-.07-2.31-.07-2.39,0-3.47.07C50.05,66.39,50,66,50.09,66Z"/><path class="cls-2" d="M59.31,66c.61-.09,1-.32,1-1.07V59.5c0-.75-.38-1-1-1.07-.1,0,0-.4.07-.4h3.26c.09,0,.16.39.07.4-.51.08-1,.24-1,1.07v5.38c0,.83.48,1,1,1.07.09,0,0,.4-.07.4H59.38C59.29,66.35,59.21,66,59.31,66Z"/><path class="cls-2" d="M65.22,62.34a4.31,4.31,0,0,1,4.59-4.5c1.38,0,2.56.43,2.42.84l-.15.47c-.43,1.27-.89-.36-3-.36-1.7,0-2.53,1.11-2.53,2.82A3.6,3.6,0,0,0,70.2,65.4a5,5,0,0,0,1.91-.56c.1-.06.35.21.28.32a4.64,4.64,0,0,1-2.48,1.38C67.92,66.54,65.22,65.38,65.22,62.34Z"/><path class="cls-2" d="M83.24,66.35H80.1c-.15,0-.16-.38,0-.4.44-.09.91-.24.47-1.26l-.13-.3c-.12-.29-.32-.31-.67-.31H77.31c-.36,0-.56,0-.68.31l-.12.3c-.41,1,0,1.17.61,1.26.15,0,.12.4,0,.4H74.52c-.15,0-.18-.38,0-.4.49-.09.77-.25,1.21-1.26l2-4.62a4.92,4.92,0,0,0,.61-2,1.73,1.73,0,0,1,.87-.18l2.9,6.76c.42,1,.71,1.2,1.19,1.28C83.43,66,83.38,66.35,83.24,66.35Zm-3.31-3.13-1.4-3.32-1.4,3.32c-.07.17.11.19.28.19h2.24C79.82,63.41,80,63.39,79.93,63.22Z"/><path class="cls-2" d="M89,66c.69-.18,1.22-.29,1.22-1.17V59.5c0-.76-.48-1-1-1.09-.1,0,0-.42.06-.4a12,12,0,0,0,1.48.07c.93,0,1.76-.07,2.37-.07,2.87,0,4.43,1.71,4.43,4a4.22,4.22,0,0,1-4.45,4.36c-.57,0-1.3-.07-2.18-.07a17.32,17.32,0,0,0-1.87.07C89,66.39,88.9,66,89,66Zm7.14-3.26c0-2.27-1.23-4-3.37-4-.85,0-1.12.26-1.12.86v5.28c0,.64.44,1,1.59,1C95.18,65.74,96.14,64.7,96.14,62.69Z"/><path class="cls-2" d="M100.15,62.24a4.24,4.24,0,0,1,4.32-4.4,4.16,4.16,0,0,1,4.29,4.29,4.24,4.24,0,0,1-4.32,4.41A4.18,4.18,0,0,1,100.15,62.24Zm7.19.56c0-2.41-1.63-4.15-3.34-4.15-1,0-2.42.69-2.42,2.92,0,2.43,1.63,4.16,3.33,4.16C106,65.73,107.34,65,107.34,62.8Z"/><path class="cls-2" d="M121.69,66.35h-3.1c-.08,0-.14-.39-.07-.4a.89.89,0,0,0,.83-1.07l-.22-4L117.2,64.8a6.29,6.29,0,0,0-.47,1.23c0,.14-.28.21-.47.21a.38.38,0,0,1-.37-.21l-2.74-5.21L113,64.88A.89.89,0,0,0,113.8,66c.1,0,0,.4-.06.4h-2.46c-.09,0-.16-.39-.07-.4a1,1,0,0,0,1-1.07l.38-6.83c0-.2.46-.21.58,0l3.45,6.45,3.19-6.45c.11-.21.59-.2.6,0l.38,6.83c0,.83.47,1,1,1.07C121.85,66,121.78,66.35,121.69,66.35Z"/><path class="cls-2" d="M124.14,66c.6-.09,1-.32,1-1.07V59.5c0-.75-.38-1-1-1.07-.1,0,0-.4.07-.4h3.25c.1,0,.17.39.08.4-.52.08-1,.24-1,1.07v5.38c0,.83.47,1,1,1.07.09,0,0,.4-.08.4h-3.25C124.11,66.35,124,66,124.14,66Z"/><path class="cls-2" d="M137.31,66.24l-5.66-5.92v4.52c0,.81.47.94,1.15,1.11.1,0,0,.4-.07.4h-2.82c-.09,0-.16-.37,0-.4.49-.17,1-.27,1-1.11V60.23a2.43,2.43,0,0,0-.44-1.66c-.11-.15-.21-.24-.21-.28a.24.24,0,0,1,.23-.26h.88a.32.32,0,0,1,.29.11L137.12,64V59.53c0-.85-.54-.94-1.16-1.1-.09,0,0-.4.08-.4h2.81c.1,0,.16.38.06.4-.52.16-1,.25-1,1.1v4.62a10.09,10.09,0,0,0,.14,2.09c0,.18-.14.23-.33.23A.52.52,0,0,1,137.31,66.24Z"/><path class="cls-2" d="M141.29,66c.61-.09,1-.32,1-1.07V59.5c0-.75-.38-1-1-1.07-.09,0,0-.4.08-.4h3.25c.1,0,.17.39.07.4-.51.08-1,.24-1,1.07v5.38c0,.83.47,1,1,1.07.1,0,0,.4-.07.4h-3.25C141.27,66.35,141.2,66,141.29,66Z"/><path class="cls-2" d="M147.2,62.34a4.31,4.31,0,0,1,4.59-4.5c1.38,0,2.57.43,2.43.84l-.16.47c-.43,1.27-.89-.36-3-.36-1.7,0-2.53,1.11-2.53,2.82a3.6,3.6,0,0,0,3.66,3.79,5,5,0,0,0,1.92-.56c.09-.06.34.21.27.32a4.59,4.59,0,0,1-2.47,1.38C149.9,66.54,147.2,65.38,147.2,62.34Z"/><path class="cls-2" d="M165.22,66.35h-3.13c-.16,0-.17-.38,0-.4.44-.09.92-.24.48-1.26l-.13-.3c-.12-.29-.33-.31-.68-.31h-2.43c-.35,0-.55,0-.67.31l-.12.3c-.42,1,0,1.17.6,1.26.16,0,.12.4,0,.4H156.5c-.14,0-.18-.38,0-.4.48-.09.77-.25,1.21-1.26l2-4.62a5,5,0,0,0,.6-2,1.73,1.73,0,0,1,.87-.18l2.9,6.76c.43,1,.71,1.2,1.19,1.28C165.41,66,165.37,66.35,165.22,66.35Zm-3.31-3.13-1.39-3.32-1.4,3.32c-.08.17.1.19.27.19h2.24C161.8,63.41,162,63.39,161.91,63.22Z"/><path class="cls-2" d="M174.9,66.24l-5.65-5.92v4.52c0,.81.47.94,1.15,1.11.09,0,0,.4-.07.4h-2.82c-.09,0-.17-.37-.06-.4.5-.17,1-.27,1-1.11V60.23a2.43,2.43,0,0,0-.44-1.66c-.11-.15-.22-.24-.22-.28A.25.25,0,0,1,168,58h.88a.3.3,0,0,1,.28.11L174.71,64V59.53c0-.85-.53-.94-1.15-1.1-.09,0-.05-.4.07-.4h2.82c.09,0,.15.38.06.4-.52.16-1,.25-1,1.1v4.62a10,10,0,0,0,.15,2.09c0,.18-.15.23-.34.23A.53.53,0,0,1,174.9,66.24Z"/><path class="cls-2" d="M187.17,66.35H184c-.16,0-.17-.38,0-.4.44-.09.92-.24.48-1.26l-.13-.3c-.12-.29-.32-.31-.68-.31h-2.43c-.35,0-.55,0-.67.31l-.12.3c-.42,1,0,1.17.6,1.26.16,0,.12.4,0,.4h-2.57c-.14,0-.18-.38,0-.4.48-.09.77-.25,1.21-1.26l2-4.62a5,5,0,0,0,.6-2,1.73,1.73,0,0,1,.87-.18l2.9,6.76c.43,1,.71,1.2,1.19,1.28C187.37,66,187.32,66.35,187.17,66.35Zm-3.31-3.13-1.39-3.32-1.4,3.32c-.08.17.1.19.27.19h2.25C183.75,63.41,183.93,63.39,183.86,63.22Z"/><rect class="cls-1" x="1.03" y="73.43" width="42.97" height="2.03"/></g></g></svg>